<?xml version="1.0" standalone="no"?>
<!DOCTYPE svg PUBLIC "-//W3C//DTD SVG 20010904//EN"
 "http://www.w3.org/TR/2001/REC-SVG-20010904/DTD/svg10.dtd">
<svg version="1.0" xmlns="http://www.w3.org/2000/svg"
 width="702.000000pt" height="702.000000pt" viewBox="0 0 702.000000 702.000000"
 preserveAspectRatio="xMidYMid meet">
<metadata>
Created by potrace 1.16, written by Peter Selinger 2001-2019
</metadata>
<g transform="translate(0.000000,702.000000) scale(0.100000,-0.100000)"
fill="#000000" stroke="none">
<path d="M3266 6649 c-1235 -83 -2338 -863 -2821 -1994 -193 -453 -287 -982
-256 -1451 53 -824 379 -1552 951 -2124 745 -746 1807 -1096 2849 -939 1000
150 1866 738 2380 1612 310 529 472 1202 432 1803 -53 824 -379 1552 -951
2124 -679 680 -1622 1034 -2584 969z m659 -279 c681 -104 1274 -399 1744 -869
1175 -1175 1175 -3067 0 -4242 -423 -423 -981 -722 -1564 -838 -236 -47 -329
-55 -620 -55 -291 0 -384 8 -620 55 -583 116 -1141 415 -1564 838 -1021 1021
-1173 2609 -363 3801 513 756 1323 1233 2258 1329 155 16 569 6 729 -19z"/>
<path d="M3270 6004 c-150 -10 -429 -65 -585 -116 -451 -147 -853 -410 -1154
-754 -130 -149 -203 -249 -303 -418 -132 -220 -258 -548 -303 -786 -3 -14 -9
-47 -14 -75 -6 -27 -13 -77 -16 -110 -4 -33 -10 -91 -15 -130 -12 -91 -12
-340 0 -432 5 -39 12 -100 15 -135 4 -35 11 -79 15 -98 5 -19 11 -51 14 -70 5
-30 26 -118 56 -225 72 -262 245 -599 444 -860 95 -126 355 -380 486 -477 222
-164 434 -278 686 -372 158 -59 357 -107 569 -138 120 -17 512 -17 635 0 512
72 926 248 1320 560 111 88 302 278 396 395 143 177 302 446 385 653 60 150
128 379 143 479 3 22 10 63 16 90 11 61 17 120 30 290 16 206 -10 502 -63 720
-32 129 -65 242 -86 290 -5 11 -15 36 -21 55 -7 19 -28 68 -46 108 -19 41 -34
76 -34 79 0 13 -133 246 -183 319 -155 232 -394 485 -599 638 -367 272 -730
425 -1192 501 -95 16 -468 28 -596 19z m-195 -734 c149 -31 238 -64 350 -129
71 -41 198 -137 239 -180 17 -17 37 -31 45 -31 9 0 49 29 89 65 182 162 387
258 608 286 592 73 1135 -316 1253 -898 31 -150 29 -347 -3 -468 -59 -220
-148 -377 -301 -530 -167 -168 -318 -256 -532 -311 -123 -32 -316 -43 -430
-24 -96 15 -248 63 -325 101 -32 16 -60 29 -63 29 -3 0 -5 -145 -5 -322 -1
-353 -9 -477 -39 -589 -34 -122 -37 -133 -79 -221 -105 -224 -290 -412 -515
-523 -268 -132 -558 -157 -821 -71 -189 62 -319 139 -455 270 -145 140 -237
284 -294 461 -54 166 -52 131 -52 1165 0 904 1 970 19 1045 111 482 486 822
986 895 74 11 216 2 325 -20z"/>
<path d="M2778 4720 c-110 -19 -226 -76 -301 -148 -50 -48 -111 -136 -139
-204 l-23 -53 -3 -934 c-3 -1029 -5 -990 60 -1119 21 -42 55 -85 104 -132 181
-172 416 -207 645 -97 132 63 226 168 278 311 l26 71 3 885 c2 579 -1 908 -8
952 -21 138 -93 269 -186 341 -136 107 -303 153 -456 127z m227 -1794 c99 -45
179 -138 205 -235 35 -131 -1 -250 -104 -349 -81 -78 -134 -96 -260 -90 -109
5 -165 30 -238 105 -72 73 -93 128 -92 243 0 87 2 100 31 155 89 173 290 248
458 171z"/>
<path d="M4402 4710 c-101 -27 -166 -64 -244 -140 -107 -104 -168 -252 -168
-406 1 -324 263 -574 588 -560 157 7 279 64 389 179 116 124 159 241 150 412
-9 159 -56 266 -166 375 -104 103 -216 149 -376 156 -78 3 -116 0 -173 -16z"/>
</g>
</svg>
