<?xml version="1.0" standalone="no"?>
<!DOCTYPE svg PUBLIC "-//W3C//DTD SVG 20010904//EN"
 "http://www.w3.org/TR/2001/REC-SVG-20010904/DTD/svg10.dtd">
<svg version="1.0" xmlns="http://www.w3.org/2000/svg"
 width="250.000000pt" height="250.000000pt" viewBox="0 0 250.000000 250.000000"
 preserveAspectRatio="xMidYMid meet">

<g transform="translate(0.000000,250.000000) scale(0.100000,-0.100000)"
fill="#000000" stroke="none">
<path d="M1150 2464 c-487 -45 -910 -373 -1060 -822 -49 -148 -63 -233 -63
-392 0 -159 14 -244 63 -392 136 -408 499 -719 938 -804 128 -25 338 -23 472
5 507 107 890 507 966 1011 84 558 -232 1103 -759 1309 -164 64 -397 99 -557
85z m316 -109 c465 -88 834 -465 909 -929 98 -604 -322 -1181 -935 -1286 -97
-17 -285 -17 -380 -1 -407 71 -741 346 -885 727 -86 230 -86 538 0 768 152
403 510 682 945 735 89 11 247 5 346 -14z"/>
<path d="M1105 2220 c-147 -22 -316 -92 -436 -181 -172 -128 -306 -327 -365
-544 -25 -92 -30 -323 -9 -426 39 -196 122 -349 269 -495 145 -145 298 -229
490 -269 98 -20 276 -21 376 -1 458 88 787 488 787 956 1 250 -91 477 -267
663 -220 233 -534 343 -845 297z m70 -289 c27 -12 74 -40 104 -63 36 -27 58
-38 66 -32 7 5 34 26 61 46 137 105 348 102 491 -7 123 -93 190 -256 164 -398
-48 -261 -323 -421 -561 -327 -28 11 -53 20 -55 20 -3 0 -5 -62 -5 -138 0
-209 -32 -304 -137 -403 -128 -121 -310 -148 -469 -69 -81 40 -173 137 -206
217 -23 58 -23 61 -23 463 l0 405 32 67 c53 113 136 187 258 231 69 25 210 19
280 -12z"/>
<path d="M919 1722 c-43 -23 -59 -38 -82 -82 l-28 -54 3 -362 3 -362 30 -44
c94 -132 284 -118 363 27 15 26 17 76 20 360 4 370 -1 415 -51 472 -67 76
-166 93 -258 45z m162 -647 c84 -44 91 -163 13 -224 -50 -39 -157 -21 -185 30
-37 70 -28 130 27 178 40 36 95 41 145 16z"/>
<path d="M1555 1731 c-74 -34 -115 -102 -115 -190 0 -62 10 -89 51 -135 45
-52 84 -69 154 -70 143 -2 241 128 201 266 -35 121 -175 183 -291 129z"/>
</g>
</svg>
